HIERARCHY
ROOT mixamorig1:Hips
{
	OFFSET -0.000023 3.007882 -99.754364
	CHANNELS 6 Xposition Yposition Zposition Xrotation Yrotation Zrotation
	JOINT mixamorig1:Spine
	{
		OFFSET 0.000000 -1.180207 -9.717224
		CHANNELS 3 Xrotation Yrotation Zrotation
		JOINT mixamorig1:Spine1
		{
			OFFSET 0.000000 -1.376932 -11.336823
			CHANNELS 3 Xrotation Yrotation Zrotation
			JOINT mixamorig1:Spine2
			{
				OFFSET 0.000000 -1.573653 -12.956345
				CHANNELS 3 Xrotation Yrotation Zrotation
				JOINT mixamorig1:Neck
				{
					OFFSET 0.000000 -1.770437 -14.575974
					CHANNELS 3 Xrotation Yrotation Zrotation
					JOINT mixamorig1:Head
					{
						OFFSET 0.000000 1.972157 -6.720200
						CHANNELS 3 Xrotation Yrotation Zrotation
						JOINT mixamorig1:HeadTop_End
						{
							OFFSET 0.000000 6.162764 -20.999847
							CHANNELS 3 Xrotation Yrotation Zrotation
							End Site
							{
								OFFSET 0.000000 0.000000 -21.885452
							}
						}
					}
				}
				JOINT mixamorig1:LeftShoulder
				{
					OFFSET 6.140116 -1.799544 -12.877853
					CHANNELS 3 Xrotation Yrotation Zrotation
					JOINT mixamorig1:LeftArm
					{
						OFFSET 12.545031 -0.058010 3.431427
						CHANNELS 3 Xrotation Yrotation Zrotation
						JOINT mixamorig1:LeftForeArm
						{
							OFFSET 25.447281 -1.505625 1.876373
							CHANNELS 3 Xrotation Yrotation Zrotation
							JOINT mixamorig1:LeftHand
							{
								OFFSET 23.367504 0.971305 -0.877640
								CHANNELS 3 Xrotation Yrotation Zrotation
								JOINT mixamorig1:LeftHandThumb1
								{
									OFFSET 3.575478 3.039434 1.761887
									CHANNELS 3 Xrotation Yrotation Zrotation
									JOINT mixamorig1:LeftHandThumb2
									{
										OFFSET 2.860405 2.431552 1.409454
										CHANNELS 3 Xrotation Yrotation Zrotation
										JOINT mixamorig1:LeftHandThumb3
										{
											OFFSET 2.578941 1.750709 1.801514
											CHANNELS 3 Xrotation Yrotation Zrotation
											JOINT mixamorig1:LeftHandThumb4
											{
												OFFSET 2.408989 1.064221 1.461151
												CHANNELS 3 Xrotation Yrotation Zrotation
												End Site
												{
													OFFSET 2.176476 1.440013 1.503357
												}
											}
										}
									}
								}
								JOINT mixamorig1:LeftHandIndex1
								{
									OFFSET 11.357018 4.439679 1.306473
									CHANNELS 3 Xrotation Yrotation Zrotation
									JOINT mixamorig1:LeftHandIndex2
									{
										OFFSET 3.215240 0.624045 0.390930
										CHANNELS 3 Xrotation Yrotation Zrotation
										JOINT mixamorig1:LeftHandIndex3
										{
											OFFSET 2.938980 0.560646 0.735489
											CHANNELS 3 Xrotation Yrotation Zrotation
											JOINT mixamorig1:LeftHandIndex4
											{
												OFFSET 2.552437 0.483288 0.779205
												CHANNELS 3 Xrotation Yrotation Zrotation
												End Site
												{
													OFFSET 2.555870 0.467434 0.777603
												}
											}
										}
									}
								}
								JOINT mixamorig1:LeftHandMiddle1
								{
									OFFSET 12.195602 2.108765 0.657242
									CHANNELS 3 Xrotation Yrotation Zrotation
									JOINT mixamorig1:LeftHandMiddle2
									{
										OFFSET 3.379944 0.236206 0.547394
										CHANNELS 3 Xrotation Yrotation Zrotation
										JOINT mixamorig1:LeftHandMiddle3
										{
											OFFSET 3.043900 0.195068 0.829651
											CHANNELS 3 Xrotation Yrotation Zrotation
											JOINT mixamorig1:LeftHandMiddle4
											{
												OFFSET 2.806625 0.188473 0.600723
												CHANNELS 3 Xrotation Yrotation Zrotation
												End Site
												{
													OFFSET 2.806618 0.188510 0.600739
												}
											}
										}
									}
								}
								JOINT mixamorig1:LeftHandRing1
								{
									OFFSET 12.563576 -0.154891 0.458878
									CHANNELS 3 Xrotation Yrotation Zrotation
									JOINT mixamorig1:LeftHandRing2
									{
										OFFSET 2.596565 0.032336 0.829819
										CHANNELS 3 Xrotation Yrotation Zrotation
										JOINT mixamorig1:LeftHandRing3
										{
											OFFSET 2.548286 0.044838 0.608398
											CHANNELS 3 Xrotation Yrotation Zrotation
											JOINT mixamorig1:LeftHandRing4
											{
												OFFSET 2.167870 0.038965 0.507812
												CHANNELS 3 Xrotation Yrotation Zrotation
												End Site
												{
													OFFSET 2.167732 0.042114 0.508163
												}
											}
										}
									}
								}
								JOINT mixamorig1:LeftHandPinky1
								{
									OFFSET 11.341652 -2.253323 0.310532
									CHANNELS 3 Xrotation Yrotation Zrotation
									JOINT mixamorig1:LeftHandPinky2
									{
										OFFSET 2.648827 -0.120024 0.669128
										CHANNELS 3 Xrotation Yrotation Zrotation
										JOINT mixamorig1:LeftHandPinky3
										{
											OFFSET 2.075249 -0.105192 0.703857
											CHANNELS 3 Xrotation Yrotation Zrotation
											JOINT mixamorig1:LeftHandPinky4
											{
												OFFSET 1.850784 -0.097376 0.684036
												CHANNELS 3 Xrotation Yrotation Zrotation
												End Site
												{
													OFFSET 1.850731 -0.102854 0.683411
												}
											}
										}
									}
								}
							}
						}
					}
				}
				JOINT mixamorig1:RightShoulder
				{
					OFFSET -6.140133 -1.741387 -12.877823
					CHANNELS 3 Xrotation Yrotation Zrotation
					JOINT mixamorig1:RightArm
					{
						OFFSET -12.545002 0.058123 3.431366
						CHANNELS 3 Xrotation Yrotation Zrotation
						JOINT mixamorig1:RightForeArm
						{
							OFFSET -25.447330 -1.671036 1.876465
							CHANNELS 3 Xrotation Yrotation Zrotation
							JOINT mixamorig1:RightHand
							{
								OFFSET -23.367435 0.912149 -0.877640
								CHANNELS 3 Xrotation Yrotation Zrotation
								JOINT mixamorig1:RightHandThumb1
								{
									OFFSET -3.655281 3.110017 1.787811
									CHANNELS 3 Xrotation Yrotation Zrotation
									JOINT mixamorig1:RightHandThumb2
									{
										OFFSET -2.924309 2.488113 1.430252
										CHANNELS 3 Xrotation Yrotation Zrotation
										JOINT mixamorig1:RightHandThumb3
										{
											OFFSET -2.528549 1.706924 1.776962
											CHANNELS 3 Xrotation Yrotation Zrotation
											JOINT mixamorig1:RightHandThumb4
											{
												OFFSET -2.443375 1.073468 1.162323
												CHANNELS 3 Xrotation Yrotation Zrotation
												End Site
												{
													OFFSET -2.204521 1.472025 1.202744
												}
											}
										}
									}
								}
								JOINT mixamorig1:RightHandIndex1
								{
									OFFSET -11.888382 4.755188 1.247833
									CHANNELS 3 Xrotation Yrotation Zrotation
									JOINT mixamorig1:RightHandIndex2
									{
										OFFSET -3.042244 0.442817 0.516434
										CHANNELS 3 Xrotation Yrotation Zrotation
										JOINT mixamorig1:RightHandIndex3
										{
											OFFSET -2.738869 0.392164 0.708374
											CHANNELS 3 Xrotation Yrotation Zrotation
											JOINT mixamorig1:RightHandIndex4
											{
												OFFSET -2.432571 0.348507 0.620773
												CHANNELS 3 Xrotation Yrotation Zrotation
												End Site
												{
													OFFSET -2.433441 0.343348 0.620270
												}
											}
										}
									}
								}
								JOINT mixamorig1:RightHandMiddle1
								{
									OFFSET -12.008347 2.098396 0.748550
									CHANNELS 3 Xrotation Yrotation Zrotation
									JOINT mixamorig1:RightHandMiddle2
									{
										OFFSET -3.442291 0.287318 0.415817
										CHANNELS 3 Xrotation Yrotation Zrotation
										JOINT mixamorig1:RightHandMiddle3
										{
											OFFSET -3.106178 0.240102 0.837677
											CHANNELS 3 Xrotation Yrotation Zrotation
											JOINT mixamorig1:RightHandMiddle4
											{
												OFFSET -2.855728 0.227592 0.604996
												CHANNELS 3 Xrotation Yrotation Zrotation
												End Site
												{
													OFFSET -2.855972 0.225131 0.604736
												}
											}
										}
									}
								}
								JOINT mixamorig1:RightHandRing1
								{
									OFFSET -12.328026 -0.015787 0.608994
									CHANNELS 3 Xrotation Yrotation Zrotation
									JOINT mixamorig1:RightHandRing2
									{
										OFFSET -2.763496 -0.029507 0.569153
										CHANNELS 3 Xrotation Yrotation Zrotation
										JOINT mixamorig1:RightHandRing3
										{
											OFFSET -2.573975 -0.042469 0.772354
											CHANNELS 3 Xrotation Yrotation Zrotation
											JOINT mixamorig1:RightHandRing4
											{
												OFFSET -2.323860 -0.023427 0.456833
												CHANNELS 3 Xrotation Yrotation Zrotation
												End Site
												{
													OFFSET -2.323814 -0.019363 0.457275
												}
											}
										}
									}
								}
								JOINT mixamorig1:RightHandPinky1
								{
									OFFSET -11.463135 -2.202621 0.329407
									CHANNELS 3 Xrotation Yrotation Zrotation
									JOINT mixamorig1:RightHandPinky2
									{
										OFFSET -2.569016 -0.108848 0.599854
										CHANNELS 3 Xrotation Yrotation Zrotation
										JOINT mixamorig1:RightHandPinky3
										{
											OFFSET -2.016190 -0.102787 0.737000
											CHANNELS 3 Xrotation Yrotation Zrotation
											JOINT mixamorig1:RightHandPinky4
											{
												OFFSET -1.796242 -0.085258 0.576553
												CHANNELS 3 Xrotation Yrotation Zrotation
												End Site
												{
													OFFSET -1.796211 -0.087722 0.576279
												}
											}
										}
									}
								}
							}
						}
					}
				}
			}
		}
	}
	JOINT mixamorig1:LeftUpLeg
	{
		OFFSET 8.078197 -0.535866 5.402374
		CHANNELS 3 Xrotation Yrotation Zrotation
		JOINT mixamorig1:LeftLeg
		{
			OFFSET 3.743074 -2.695465 42.540520
			CHANNELS 3 Xrotation Yrotation Zrotation
			JOINT mixamorig1:LeftFoot
			{
				OFFSET 3.359008 -2.882252 41.940849
				CHANNELS 3 Xrotation Yrotation Zrotation
				JOINT mixamorig1:LeftToeBase
				{
					OFFSET 1.133368 13.321875 9.116440
					CHANNELS 3 Xrotation Yrotation Zrotation
					JOINT mixamorig1:LeftToe_End
					{
						OFFSET 0.591574 6.177378 0.054443
						CHANNELS 3 Xrotation Yrotation Zrotation
						End Site
						{
							OFFSET 0.591574 6.177376 0.054443
						}
					}
				}
			}
		}
	}
	JOINT mixamorig1:RightUpLeg
	{
		OFFSET -8.078202 -0.751774 5.402405
		CHANNELS 3 Xrotation Yrotation Zrotation
		JOINT mixamorig1:RightLeg
		{
			OFFSET -3.743069 -2.464523 42.540482
			CHANNELS 3 Xrotation Yrotation Zrotation
			JOINT mixamorig1:RightFoot
			{
				OFFSET -3.359002 -2.968981 41.940781
				CHANNELS 3 Xrotation Yrotation Zrotation
				JOINT mixamorig1:RightToeBase
				{
					OFFSET -1.133408 13.416486 9.116801
					CHANNELS 3 Xrotation Yrotation Zrotation
					JOINT mixamorig1:RightToe_End
					{
						OFFSET -0.591589 6.151405 0.054615
						CHANNELS 3 Xrotation Yrotation Zrotation
						End Site
						{
							OFFSET -0.591589 6.151402 0.054615
						}
					}
				}
			}
		}
	}
}
MOTION
Frames: 4
Frame Time: 0.033333
-120.024200 36.570553 -194.545288 13.501760 -4.109455 -64.912595 15.821308 7.694089 1.222042 7.035716 3.376618 0.804935 12.302783 5.959868 1.134770 13.399772 6.020720 8.312326 -11.646209 7.611098 17.501590 -0.000001 -0.000002 -0.000000 24.425993 -8.851670 12.636668 17.122536 -62.001281 53.966151 24.043710 10.705393 29.955721 5.402861 34.395975 0.591748 0.000001 -0.000005 0.000000 0.000000 0.000001 -0.000001 -0.000002 0.000003 0.000002 0.000001 0.000001 -0.000004 0.000001 -0.000002 0.000002 -0.000001 0.000001 0.000001 0.000001 0.000005 -0.000002 -0.000001 -0.000000 -0.000001 0.000002 -0.000005 0.000000 -0.000001 0.000000 0.000000 -0.000001 -0.000005 0.000001 -0.000001 -0.000001 -0.000000 0.000002 -0.000000 0.000000 -0.000000 0.000000 0.000001 -0.000000 -0.000003 0.000001 -0.000001 0.000001 -0.000001 0.000001 -0.000003 -0.000001 0.000002 -0.000005 -0.000000 -0.000000 0.000004 -0.000000 0.000001 0.000004 -0.000001 20.252334 2.933590 -14.345737 -3.123463 53.395198 -43.833883 -9.151818 -31.297470 -24.175933 -5.397391 -71.625844 -40.987525 0.000002 0.000000 -0.000002 -0.000001 0.000003 0.000001 -0.000003 -0.000003 -0.000000 -0.000001 -0.000001 -0.000002 0.000001 -0.000002 0.000001 0.000001 -0.000001 0.000002 0.000001 -0.000003 0.000001 0.000001 -0.000001 0.000001 0.000003 -0.000000 0.000001 -0.000002 0.000000 -0.000003 -0.000002 0.000002 0.000001 0.000001 0.000003 -0.000001 0.000002 0.000001 0.000000 0.000002 -0.000003 -0.000000 -0.000001 0.000001 -0.000001 0.000000 0.000001 -0.000001 0.000002 0.000000 0.000001 0.000000 -0.000002 0.000002 -0.000001 0.000000 0.000001 0.000001 0.000002 0.000002 -19.992961 1.458160 -23.869182 22.217524 0.516492 -0.988035 -5.240840 4.999997 -7.119622 0.000107 0.000933 0.000041 0.000000 0.000000 -0.000001 -24.448930 -11.731912 11.078774 18.798754 -0.499471 -2.801530 -4.901074 -1.498555 -0.428995 0.000103 -0.000769 -0.000051 0.000000 -0.000000 0.000005 
-120.017822 36.276314 -194.487137 13.112977 -4.064994 -66.117146 15.781926 7.718951 1.205571 7.017952 3.388332 0.797780 12.271985 5.979594 1.121981 13.383309 6.268545 8.586101 -11.708900 7.948857 18.101673 0.000002 0.000000 -0.000001 24.215637 -8.839512 12.417053 16.998326 -62.249600 53.474091 24.174918 10.520723 29.992115 5.311783 34.204594 0.626722 0.000001 0.000001 0.000000 -0.000005 0.000002 -0.000000 -0.000002 -0.000002 0.000003 -0.000002 -0.000002 -0.000006 -0.000001 0.000001 0.000001 -0.000000 0.000001 0.000001 -0.000000 -0.000002 -0.000003 -0.000000 -0.000000 -0.000001 -0.000000 0.000001 0.000001 0.000001 0.000004 0.000000 -0.000001 0.000003 0.000001 -0.000001 -0.000001 0.000000 0.000000 0.000001 0.000000 -0.000001 0.000003 -0.000000 -0.000001 0.000002 0.000001 0.000000 -0.000002 -0.000001 0.000000 0.000002 -0.000000 -0.000000 0.000001 0.000001 -0.000002 0.000004 0.000001 -0.000001 0.000008 -0.000001 20.179724 3.048914 -14.482762 -4.045288 53.247205 -42.532930 -10.525811 -30.905930 -24.059828 -6.080707 -71.091416 -42.000203 0.000003 0.000002 -0.000001 -0.000003 0.000001 -0.000003 -0.000000 -0.000003 0.000002 -0.000001 -0.000001 0.000003 0.000002 -0.000002 0.000002 -0.000002 0.000000 0.000002 -0.000002 -0.000002 0.000001 0.000001 0.000000 0.000004 0.000004 -0.000001 0.000003 -0.000003 0.000000 -0.000002 -0.000000 0.000001 0.000001 -0.000001 0.000002 0.000001 0.000002 0.000002 0.000001 0.000001 -0.000003 -0.000005 0.000001 -0.000000 -0.000003 0.000000 -0.000000 -0.000000 0.000004 -0.000001 0.000003 0.000001 -0.000001 -0.000002 -0.000000 0.000003 -0.000003 0.000002 0.000003 -0.000003 -19.666678 2.002832 -23.971042 22.458854 0.359028 -1.896822 -5.263564 5.071621 -7.128218 0.000116 0.000925 0.000039 0.000000 0.000003 -0.000002 -23.975320 -11.887435 11.435936 18.854245 -0.582131 -2.814329 -4.895091 -1.386617 0.450641 0.000089 -0.000755 -0.000032 0.000000 -0.000000 -0.000002 
-120.011444 35.982063 -194.428986 12.725236 -4.012393 -67.321281 15.741848 7.743115 1.189670 6.999889 3.399730 0.790893 12.240689 5.998898 1.109762 13.368031 6.516242 8.859981 -11.770582 8.284965 18.703018 0.000001 0.000001 -0.000001 24.001442 -8.827686 12.201257 16.847548 -62.493642 52.957581 24.306859 10.334782 30.023179 5.224606 34.012402 0.655107 -0.000000 -0.000000 0.000001 -0.000003 0.000003 -0.000003 0.000001 -0.000001 0.000001 -0.000001 0.000003 0.000002 0.000001 -0.000004 -0.000001 0.000000 -0.000000 0.000000 0.000001 -0.000002 -0.000001 0.000000 0.000001 0.000000 0.000001 -0.000001 0.000001 0.000001 -0.000002 0.000000 -0.000000 -0.000002 0.000001 -0.000000 -0.000002 0.000001 0.000001 0.000001 0.000000 0.000001 0.000002 0.000001 0.000000 -0.000002 -0.000000 0.000001 -0.000002 -0.000001 -0.000000 0.000001 -0.000001 0.000001 -0.000005 -0.000001 0.000001 0.000004 0.000001 0.000001 0.000004 -0.000000 20.103584 3.163737 -14.617959 -4.940830 53.090856 -41.243483 -11.884374 -30.511794 -23.917065 -6.719543 -70.554536 -42.970192 0.000001 0.000002 0.000000 -0.000001 0.000001 -0.000003 -0.000003 -0.000002 -0.000001 -0.000001 0.000001 -0.000002 -0.000002 -0.000001 0.000003 -0.000002 0.000001 -0.000004 -0.000002 -0.000004 0.000002 -0.000001 -0.000000 0.000004 -0.000001 0.000001 0.000003 -0.000000 -0.000000 -0.000002 0.000001 0.000001 -0.000002 -0.000000 0.000000 0.000003 -0.000003 0.000002 0.000002 -0.000002 -0.000003 -0.000001 -0.000003 0.000002 -0.000003 -0.000002 0.000002 -0.000003 -0.000003 0.000003 0.000001 -0.000000 -0.000000 0.000004 0.000001 0.000004 -0.000003 0.000001 0.000002 -0.000001 -19.350901 2.554047 -24.073627 22.703074 0.205469 -2.804850 -5.289133 5.142187 -7.137023 0.000091 0.000940 0.000034 -0.000000 0.000000 -0.000000 -23.498223 -12.032787 11.795259 18.910861 -0.663974 -2.827265 -4.888401 -1.273462 1.330116 0.000099 -0.000764 -0.000033 -0.000000 -0.000000 0.000002 
-120.004173 35.677414 -194.373947 12.300424 -3.966454 -68.564649 15.702393 7.772274 1.188106 6.982292 3.412846 0.790553 12.209820 6.021669 1.108851 13.360424 6.780612 9.122533 -11.823192 8.656426 19.290846 0.000000 -0.000000 0.000001 23.813381 -8.830901 11.972416 16.664381 -62.726060 52.426903 24.445237 10.127041 29.999919 5.167929 33.777157 0.684522 -0.000000 0.000004 -0.000001 -0.000002 0.000000 -0.000001 -0.000002 0.000001 -0.000002 0.000001 -0.000002 -0.000003 -0.000000 0.000002 0.000001 0.000001 0.000005 0.000002 0.000000 -0.000002 -0.000001 -0.000000 -0.000002 -0.000000 -0.000001 -0.000001 -0.000001 0.000001 -0.000002 0.000000 0.000000 -0.000002 0.000000 -0.000001 0.000003 0.000000 0.000002 -0.000000 -0.000001 0.000002 0.000001 0.000001 0.000001 0.000001 -0.000000 -0.000001 0.000002 0.000000 -0.000001 0.000004 -0.000000 0.000001 -0.000004 0.000000 0.000001 0.000004 -0.000000 0.000001 0.000006 -0.000000 19.997462 3.277617 -14.745854 -5.814249 53.002166 -39.968573 -13.201326 -30.135522 -23.741557 -7.101060 -70.116605 -43.399203 0.000002 -0.000001 -0.000001 0.000000 0.000001 -0.000000 -0.000003 -0.000003 -0.000003 -0.000001 -0.000005 0.000003 -0.000001 -0.000001 -0.000001 0.000001 0.000001 -0.000005 0.000001 -0.000002 -0.000001 -0.000000 0.000000 -0.000000 -0.000001 -0.000000 0.000002 -0.000002 0.000000 -0.000004 -0.000003 0.000000 -0.000002 -0.000001 0.000002 0.000001 -0.000000 0.000003 0.000002 0.000000 -0.000001 -0.000002 -0.000003 0.000002 -0.000001 0.000001 0.000001 -0.000001 0.000000 0.000001 -0.000001 -0.000001 0.000002 0.000003 -0.000002 0.000001 -0.000002 -0.000001 0.000000 0.000003 -19.051534 3.164569 -24.264703 22.941671 0.015758 -3.676494 -5.313681 5.256604 -7.177683 0.000099 0.000924 0.000041 -0.000000 0.000001 -0.000001 -22.998027 -12.162597 12.116838 18.950720 -0.704783 -2.765994 -4.873092 -1.142347 2.219563 0.000085 -0.000767 -0.000025 0.000000 -0.000000 0.000000 
